<?xml version="1.0" standalone="no"?>
<svg xmlns="http://www.w3.org/2000/svg" viewBox="0 0 193 70" width="193" height="70"><g fill="#7fa84a" color="#7fa84a" transform="translate(78.975 0) scale(0.0683594) "><svg width="512.0" height="512.0" x="0.0" y="0.0" viewBox="0 0 512 512"><g><path d="M332.1,2.1H179.8c-14,0-25.4,11.4-25.4,25.4v457c0,14,11.4,25.4,25.4,25.4h152.3c14,0,25.4-11.4,25.4-25.4v-457   C357.5,13.5,346.1,2.1,332.1,2.1z M256,459.1c-28,0-50.8-22.7-50.8-50.8c0-28,22.7-50.8,50.8-50.8s50.8,22.7,50.8,50.8   C306.7,436.4,284,459.1,256,459.1z M256,306.8c-28,0-50.8-22.7-50.8-50.8c0-28,22.7-50.8,50.8-50.8s50.8,22.7,50.8,50.8   C306.7,284,284,306.8,256,306.8z M256,154.4c-28,0-50.8-22.7-50.8-50.8c0-28,22.7-50.8,50.8-50.8s50.8,22.7,50.8,50.8   C306.7,131.7,284,154.4,256,154.4z"></path><path d="M425.6,151.5L507,70.2c6.4-6.4,1.9-17.3-7.2-17.3h-81.4c-5.6,0-10.2,4.5-10.2,10.2v81.3   C408.3,153.4,419.2,157.9,425.6,151.5z"></path><path d="M499.8,205.2h-81.4c-5.6,0-10.2,4.5-10.2,10.2v81.3c0,9,10.9,13.6,17.3,7.2l81.4-81.3C513.4,216.1,508.9,205.2,499.8,205.2   z"></path><path d="M499.8,357.5h-81.4c-5.6,0-10.2,4.5-10.2,10.2v81.3c0,9.1,10.9,13.6,17.3,7.2l81.4-81.3   C513.4,368.4,508.9,357.5,499.8,357.5z"></path><path d="M93.6,52.9H12.2c-9,0-13.6,10.9-7.2,17.3l81.4,81.3c6.4,6.4,17.3,1.9,17.3-7.2V63C103.7,57.4,99.2,52.9,93.6,52.9z"></path><path d="M93.6,205.2H12.2c-9,0-13.6,10.9-7.2,17.3l81.4,81.3c6.4,6.4,17.3,1.9,17.3-7.2v-81.3C103.7,209.7,99.2,205.2,93.6,205.2z"></path><path d="M93.6,357.5H12.2c-9,0-13.6,10.9-7.2,17.3l81.4,81.3c6.4,6.4,17.3,1.9,17.3-7.2v-81.3C103.7,362,99.2,357.5,93.6,357.5z"></path></g></svg></g><line x1="80.024609375" y1="41" x2="112.92460937499999" y2="41" stroke="#b1001e" stroke-linecap="round"></line><path fill="#b1001e" fill-rule="nonzero" d="M4.38 14.94L3.28 18.41Q2.27 18.32 0.93 18.32L0.93 18.32L0 18.32L5.10 4.03Q5.44 3.07 5.44 2.91Q5.44 2.75 5.43 2.72L5.43 2.72L5.44 2.70Q6.20 2.73 7.05 2.73L7.05 2.73Q7.76 2.73 8.74 2.71L8.74 2.71L8.75 2.73Q8.73 2.78 8.73 2.86L8.73 2.86Q8.73 3.08 9.08 4.04L9.08 4.04L14.29 18.35Q14.05 18.34 13.73 18.34L13.73 18.34Q13.73 18.34 13.13 18.32L13.13 18.32Q12.83 18.32 12.60 18.32L12.60 18.32L10.78 18.32L9.68 14.94L4.38 14.94ZM5.27 12.13L8.77 12.13L7.00 6.68L5.27 12.13ZM19.04 10.08L19.04 14.93Q19.04 17.57 19.14 18.32L19.14 18.32L16.08 18.32L16.08 6.07L19.04 6.07L19.04 7.13Q20.65 5.84 22.34 5.84L22.34 5.84Q24.33 5.84 25.23 7.56L25.23 7.56Q26.13 6.63 26.73 6.34L26.73 6.34Q27.73 5.84 28.73 5.84Q29.73 5.84 30.43 6.18Q31.14 6.52 31.59 7.14L31.59 7.14Q32.52 8.39 32.52 10.58L32.52 10.58L32.52 15.25Q32.52 17.23 32.58 17.63Q32.64 18.02 32.74 18.14Q32.84 18.26 32.91 18.35L32.91 18.35L32.88 18.40Q31.95 18.32 31.50 18.32L31.50 18.32L30.62 18.32Q30.19 18.32 29.55 18.35L29.55 18.35L29.55 12.01Q29.55 9.27 28.71 8.75L28.71 8.75Q28.43 8.59 28.05 8.59Q27.67 8.59 27.38 8.68Q27.08 8.77 26.82 8.96L26.82 8.96Q26.39 9.28 25.84 10.21L25.84 10.21Q25.85 10.30 25.85 10.39Q25.85 10.49 25.85 13.49Q25.85 16.49 25.99 18.32L25.99 18.32Q25.00 18.32 24.30 18.32Q23.60 18.32 22.97 18.35L22.97 18.35L22.97 12Q22.97 10.09 22.74 9.52Q22.51 8.94 22.25 8.77Q22.00 8.59 21.62 8.59L21.62 8.59Q20.07 8.59 19.04 10.08L19.04 10.08ZM38.96 18.07L38.96 18.07L38.96 21.52Q38.96 22.52 39.01 22.83L39.01 22.83L36.09 22.83L36.09 6.07L38.96 6.07L38.96 6.83Q40.38 5.84 41.68 5.84Q42.98 5.84 43.99 6.20Q45 6.56 45.76 7.32L45.76 7.32Q47.44 8.98 47.44 12.04L47.44 12.04Q47.44 14.06 46.49 15.66L46.49 15.66Q45.68 17.00 44.25 17.81L44.25 17.81Q42.98 18.53 41.51 18.53Q40.03 18.53 38.96 18.07ZM38.96 9.47L38.96 15.12Q39.86 15.87 41.27 15.87L41.27 15.87Q43.59 15.87 44.27 13.63L44.27 13.63Q44.51 12.87 44.51 11.99Q44.51 11.12 44.34 10.60Q44.18 10.08 43.92 9.70Q43.65 9.32 43.32 9.06Q43.00 8.81 42.66 8.66L42.66 8.66Q42.06 8.39 41.43 8.39Q40.79 8.39 40.11 8.68Q39.43 8.98 38.96 9.47L38.96 9.47ZM49.31 12.29L49.31 12.29Q49.31 10.92 49.78 9.75Q50.25 8.58 51.11 7.70L51.11 7.70Q52.93 5.84 55.89 5.84L55.89 5.84Q58.38 5.84 59.89 7.49L59.89 7.49Q61.38 9.08 61.38 11.50L61.38 11.50Q61.38 12.42 61.24 12.76L61.24 12.76Q60.07 13.09 56.47 13.09L56.47 13.09L52.35 13.09Q52.65 14.34 53.77 15.04Q54.88 15.74 56.66 15.74L56.66 15.74Q58.52 15.74 59.86 15.07L59.86 15.07Q60.21 14.89 60.39 14.74L60.39 14.74Q60.36 15.23 60.33 15.75L60.33 15.75L60.20 17.58Q59.31 18.19 57.32 18.42L57.32 18.42Q56.73 18.49 56.19 18.49L56.19 18.49Q53.21 18.49 51.27 16.76L51.27 16.76Q49.31 15.01 49.31 12.29ZM58.27 10.82L58.27 10.82Q57.79 8.30 55.52 8.30L55.52 8.30Q53.74 8.30 52.82 9.83L52.82 9.83Q52.54 10.30 52.38 10.86L52.38 10.86Q52.66 10.88 53.07 10.89L53.07 10.89L53.94 10.89Q54.38 10.90 54.77 10.90L54.77 10.90L55.44 10.90Q56.04 10.90 56.61 10.89L56.61 10.89L57.57 10.85Q57.96 10.84 58.27 10.82ZM66.64 0.86L66.64 17.00Q66.64 18.01 66.69 18.32L66.69 18.32L63.71 18.32L63.71 0.86L66.64 0.86ZM87.60 3.60L87.60 3.60L87.38 7.04L87.29 7.07Q86.43 5.77 84.34 5.38L84.34 5.38Q83.68 5.25 83.08 5.25Q82.48 5.25 82.05 5.36Q81.62 5.46 81.32 5.66L81.32 5.66Q80.67 6.08 80.67 6.76L80.67 6.76Q80.67 7.65 81.23 8.10L81.23 8.10Q81.94 8.64 83.57 8.85Q85.20 9.07 86.18 9.45Q87.16 9.82 87.80 10.39L87.80 10.39Q88.99 11.47 88.99 13.44L88.99 13.44Q88.99 16.02 87.05 17.41L87.05 17.41Q85.38 18.61 82.85 18.61L82.85 18.61Q80.81 18.61 78.82 17.84L78.82 17.84Q78.16 17.58 77.67 17.24L77.67 17.24L77.80 13.32L77.85 13.29Q79.30 15.80 82.62 15.80L82.62 15.80Q84.97 15.80 85.73 14.66L85.73 14.66Q85.99 14.27 85.99 13.80Q85.99 13.32 85.84 13.01Q85.69 12.70 85.34 12.48L85.34 12.48Q84.66 12.04 83.05 11.88Q81.45 11.73 80.43 11.31Q79.41 10.89 78.80 10.27L78.80 10.27Q77.70 9.14 77.70 7.13L77.70 7.13Q77.70 5.04 79.16 3.75L79.16 3.75Q80.65 2.44 83.17 2.44Q85.70 2.44 87.60 3.60ZM94.14 4.48L91.50 2.58Q92.44 1.11 93.46 0L93.46 0L95.98 1.98Q95.47 2.60 95.04 3.20L95.04 3.20Q95.04 3.20 94.14 4.48L94.14 4.48ZM94.58 6.07L94.58 17.00Q94.58 18.01 94.63 18.32L94.63 18.32L91.65 18.32L91.65 6.07L94.58 6.07ZM101.05 10.08L101.05 14.93Q101.05 17.57 101.14 18.32L101.14 18.32L98.09 18.32L98.09 6.07L101.05 6.07L101.05 7.13Q102.66 5.84 104.34 5.84L104.34 5.84Q106.34 5.84 107.24 7.56L107.24 7.56Q108.14 6.63 108.74 6.34L108.74 6.34Q109.73 5.84 110.74 5.84Q111.74 5.84 112.44 6.18Q113.14 6.52 113.60 7.14L113.60 7.14Q114.53 8.39 114.53 10.58L114.53 10.58L114.53 15.25Q114.53 17.23 114.59 17.63Q114.64 18.02 114.74 18.14Q114.84 18.26 114.91 18.35L114.91 18.35L114.89 18.40Q113.95 18.32 113.51 18.32L113.51 18.32L112.63 18.32Q112.20 18.32 111.56 18.35L111.56 18.35L111.56 12.01Q111.56 9.27 110.72 8.75L110.72 8.75Q110.44 8.59 110.06 8.59Q109.68 8.59 109.38 8.68Q109.09 8.77 108.83 8.96L108.83 8.96Q108.40 9.28 107.85 10.21L107.85 10.21Q107.86 10.30 107.86 10.39Q107.86 10.49 107.86 13.49Q107.86 16.49 108 18.32L108 18.32Q107.00 18.32 106.31 18.32Q105.61 18.32 104.98 18.35L104.98 18.35L104.98 12Q104.98 10.09 104.75 9.52Q104.52 8.94 104.26 8.77Q104.00 8.59 103.63 8.59L103.63 8.59Q102.08 8.59 101.05 10.08L101.05 10.08ZM125.26 18.32L125.26 17.25Q123.76 18.49 121.99 18.49L121.99 18.49Q120.09 18.49 119.02 17.21L119.02 17.21Q117.98 15.97 117.98 13.80L117.98 13.80L117.98 9.15Q117.98 6.81 117.88 6.46Q117.79 6.12 117.74 6.02L117.74 6.02Q118.28 6.07 118.86 6.07L118.86 6.07L119.84 6.07Q120.22 6.07 120.86 6.04L120.86 6.04L120.86 12.82Q120.86 15.23 122.17 15.62L122.17 15.62Q122.57 15.74 123.04 15.74L123.04 15.74Q124.42 15.74 125.26 14.73L125.26 14.73L125.26 6.07L128.17 6.07L128.17 16.82Q128.17 17.85 128.26 18.32L128.26 18.32L125.26 18.32ZM134.63 0.86L134.63 17.00Q134.63 18.01 134.67 18.32L134.67 18.32L131.70 18.32L131.70 0.86L134.63 0.86ZM146.00 17.59L146.00 17.59Q144.34 18.49 142.99 18.49Q141.64 18.49 140.68 18.24Q139.72 17.99 139.05 17.50L139.05 17.50Q137.70 16.50 137.70 14.61L137.70 14.61Q137.70 12.93 139.36 11.80L139.36 11.80Q141.16 10.58 144.26 10.58L144.26 10.58L144.73 10.59Q144.87 10.61 145.04 10.61Q145.22 10.62 145.36 10.64L145.36 10.64Q145.27 8.77 143.74 8.45L143.74 8.45Q143.24 8.34 142.67 8.34Q142.10 8.34 141.56 8.44Q141.01 8.54 140.50 8.71L140.50 8.71Q139.36 9.07 138.87 9.54L138.87 9.54L138.83 9.52L138.48 6.93Q140.55 5.84 143.02 5.84L143.02 5.84Q146.84 5.84 147.90 8.59L147.90 8.59Q148.24 9.47 148.24 10.57L148.24 10.57L148.24 14.81Q148.24 16.17 149.20 16.66L149.20 16.66L147.08 18.61Q146.41 18.26 146.00 17.59ZM145.37 15.20L145.37 12.75Q145.05 12.69 144.71 12.69L144.71 12.69L144.25 12.69Q141.66 12.69 140.95 13.84L140.95 13.84Q140.74 14.18 140.74 14.55Q140.74 14.93 140.88 15.22Q141.01 15.50 141.33 15.69L141.33 15.69Q141.94 16.04 143.14 16.04Q144.34 16.04 145.38 15.47L145.38 15.47Q145.37 15.34 145.37 15.20L145.37 15.20ZM157.34 15.74L157.34 15.74Q158.85 15.74 159.41 14.95L159.41 14.95L159.50 14.95L159.54 17.67Q158.96 18.25 157.41 18.43L157.41 18.43Q156.98 18.49 156.36 18.49Q155.73 18.49 155.00 18.26Q154.27 18.02 153.75 17.50L153.75 17.50Q152.68 16.41 152.68 14.09L152.68 14.09L152.68 8.77L150.91 8.77Q150.90 8.43 150.90 8.07L150.90 8.07L150.90 6.27Q150.90 6.07 150.91 6.07L150.91 6.07L152.68 6.07L152.68 2.73L155.55 2.73L155.55 6.07L158.78 6.07L158.78 8.77L155.55 8.77L155.55 13.55Q155.55 15.39 156.57 15.64L156.57 15.64Q156.90 15.74 157.34 15.74ZM164.18 4.48L161.54 2.58Q162.48 1.11 163.50 0L163.50 0L166.02 1.98Q165.52 2.60 165.08 3.20L165.08 3.20Q165.08 3.20 164.18 4.48L164.18 4.48ZM164.63 6.07L164.63 17.00Q164.63 18.01 164.67 18.32L164.67 18.32L161.70 18.32L161.70 6.07L164.63 6.07ZM167.04 12.26L167.04 12.26Q167.04 10.97 167.48 9.79Q167.92 8.61 168.74 7.73L168.74 7.73Q170.53 5.84 173.39 5.84L173.39 5.84Q176.24 5.84 177.91 7.63L177.91 7.63Q179.52 9.34 179.52 12.07L179.52 12.07Q179.52 14.80 177.87 16.59L177.87 16.59Q176.12 18.49 173.24 18.49L173.24 18.49Q170.26 18.49 168.57 16.63L168.57 16.63Q167.04 14.93 167.04 12.26ZM169.89 12.19L169.89 12.19Q169.89 12.93 170.13 13.62Q170.38 14.31 170.84 14.80L170.84 14.80Q171.81 15.87 173.39 15.87L173.39 15.87Q174.86 15.87 175.70 14.82L175.70 14.82Q176.52 13.82 176.52 12.20L176.52 12.20Q176.52 10.56 175.68 9.55L175.68 9.55Q174.77 8.47 173.20 8.47L173.20 8.47Q171.61 8.47 170.71 9.62L170.71 9.62Q169.89 10.68 169.89 12.19ZM185.04 10.13L185.04 16.82Q185.04 17.85 185.13 18.32L185.13 18.32L182.19 18.32L182.19 6.07L185.04 6.07L185.04 7.11Q186.59 5.84 188.34 5.84L188.34 5.84Q190.27 5.84 191.41 7.14Q192.56 8.45 192.56 10.58L192.56 10.58L192.56 15.25Q192.56 17.23 192.62 17.63Q192.68 18.02 192.78 18.14Q192.88 18.26 192.95 18.35L192.95 18.35L192.93 18.40Q191.98 18.32 191.54 18.32L191.54 18.32L190.72 18.32Q190.35 18.32 189.71 18.35L189.71 18.35L189.71 11.96Q189.71 8.53 187.63 8.53L187.63 8.53Q186.08 8.53 185.04 10.13L185.04 10.13Z" transform="translate(0, 47)"></path></svg>